<svg preserveAspectRatio="none" width="18" height="11.25" viewBox="0 0 18 11.25" fill="none"
  xmlns="http://www.w3.org/2000/svg">
  <g id="uz">
    <path
      d="M17.8106 1.36536L13.0557 8.89471H18V11.0082H10.3088V9.64324L15.0826 2.11389H10.4982V0.000386833H17.8106V1.36536Z"
      fill="#2196F3" />
    <path
      d="M4.26237 11.25C3.40358 11.25 2.65214 11.0372 2.00805 10.6115C1.36396 10.1859 0.865103 9.59883 0.511484 8.85029C0.170495 8.08708 0 7.2138 0 6.23043V0H1.97016V6.23043C1.97016 7.09638 2.17854 7.79354 2.59531 8.32192C3.01207 8.85029 3.56776 9.11448 4.26237 9.11448C4.95698 9.11448 5.51266 8.85029 5.92943 8.32192C6.35882 7.79354 6.57352 7.09638 6.57352 6.23043V0H8.54368V6.23043C8.54368 7.2138 8.36687 8.08708 8.01325 8.85029C7.67226 9.59883 7.17341 10.1859 6.51669 10.6115C5.8726 11.0372 5.12116 11.25 4.26237 11.25Z"
      fill="#2196F3" />
  </g>
</svg>